<?xml version="1.0" encoding="UTF-8" standalone="no"?> <svg width="64" height="64" viewBox="0 0 64 64" fill="none" xmlns="http://www.w3.org/2000/svg">
<path d="M14 45L6 53L14 61V57H32V49H14V45Z" fill="#EDB88E"/>
<path d="M53 45L61 53L53 61V57H32V49H53V45Z" fill="#EDB88E"/>
<path d="M32 49V57H14V61L6 53H13C14.1527 53.0002 15.27 52.6022 16.1629 51.8733C17.0558 51.1444 17.6695 50.1294 17.9 49H32Z" fill="#DA9367"/>
<path d="M53 61V57H32V49H44.1C44.3305 50.1294 44.9442 51.1444 45.8371 51.8733C46.73 52.6022 47.8473 53.0002 49 53H61L53 61Z" fill="#DA9367"/>
<path d="M43 18L34 10L25 18H30V39H38V18H43Z" fill="#F9DBAF"/>
<path d="M34 24V10L25 18H30V39H38V28.9C36.8706 28.6695 35.8556 28.0558 35.1267 27.1629C34.3978 26.27 33.9998 25.1527 34 24V24Z" fill="#EDB88E"/>
<path d="M51 3L42 11H47V33C47 33.7956 46.6839 34.5587 46.1213 35.1213C45.5587 35.6839 44.7956 36 44 36H26C25.2044 36 24.4413 35.6839 23.8787 35.1213C23.3161 34.5587 23 33.7956 23 33V27C23 24.8783 22.1571 22.8434 20.6569 21.3431C19.1566 19.8429 17.1217 19 15 19H11V14L3 23L11 32V27H15V32C15 35.1826 16.2643 38.2348 18.5147 40.4853C20.7652 42.7357 23.8174 44 27 44H43C46.1826 44 49.2348 42.7357 51.4853 40.4853C53.7357 38.2348 55 35.1826 55 32V11H60L51 3Z" fill="#F9DBAF"/>
<path d="M51 28V3L42 11H47V33C47 33.7956 46.6839 34.5587 46.1213 35.1213C45.5587 35.6839 44.7956 36 44 36H26C25.6586 35.9968 25.3202 35.9345 25 35.816V40C23.4087 40 21.8826 39.3679 20.7574 38.2426C19.6321 37.1174 19 35.5913 19 34V29C19 27.4087 18.3679 25.8826 17.2426 24.7574C16.1174 23.6321 14.5913 23 13 23H8C6.61447 23.003 5.27105 22.5239 4.2 21.645L3 23L11 32V27H15V32C15 35.1826 16.2643 38.2348 18.5147 40.4853C20.7652 42.7357 23.8174 44 27 44H43C46.0276 43.999 48.9427 42.8529 51.1602 40.7916C53.3777 38.7303 54.7333 35.9064 54.955 32.887C53.8361 32.6479 52.8331 32.0322 52.1133 31.1429C51.3936 30.2535 51.0006 29.1441 51 28V28Z" fill="#EDB88E"/>
<path d="M30 44H38C39.0609 44 40.0783 44.4214 40.8284 45.1716C41.5786 45.9217 42 46.9391 42 48V57H26V48C26 46.9391 26.4214 45.9217 27.1716 45.1716C27.9217 44.4214 28.9391 44 30 44Z" fill="#00B4D8"/>
<path d="M37 51V52C36.3448 52 35.696 51.8705 35.091 51.6189C34.486 51.3672 33.9367 50.9985 33.4747 50.5338C33.0127 50.0691 32.6471 49.5177 32.399 48.9112C32.1509 48.3048 32.0252 47.6552 32.029 47L32.047 44H30C28.9391 44 27.9217 44.4214 27.1716 45.1716C26.4214 45.9217 26 46.9391 26 48V57H38V50C37.7348 50 37.4804 50.1054 37.2929 50.2929C37.1054 50.4804 37 50.7348 37 51Z" fill="#0096C7"/>
<path d="M34 30C36.1217 30 38.1566 30.8429 39.6569 32.3431C41.1571 33.8434 42 35.8783 42 38V40C42 41.0609 41.5786 42.0783 40.8284 42.8284C40.0783 43.5786 39.0609 44 38 44H30C28.9391 44 27.9217 43.5786 27.1716 42.8284C26.4214 42.0783 26 41.0609 26 40V38C26 35.8783 26.8429 33.8434 28.3431 32.3431C29.8434 30.8429 31.8783 30 34 30V30Z" fill="#00B4D8"/>
<path d="M40 39.378V36.8C40 36.19 39.7577 35.605 39.3263 35.1737C38.895 34.7423 38.31 34.5 37.7 34.5C37.2454 34.5 36.8011 34.3654 36.423 34.113C35.737 33.6548 35.1645 33.0463 34.7492 32.3335C34.3338 31.6208 34.0865 30.8227 34.026 30H34C31.8783 30 29.8434 30.8429 28.3431 32.3431C26.8429 33.8434 26 35.8783 26 38V40C26 41.0609 26.4214 42.0783 27.1716 42.8284C27.9217 43.5786 28.9391 44 30 44H38C38.699 43.9982 39.3851 43.8125 39.9895 43.4614C40.5939 43.1103 41.0952 42.6063 41.443 42C41.0016 41.7194 40.6379 41.3321 40.3857 40.8738C40.1335 40.4155 40.0009 39.9011 40 39.378V39.378Z" fill="#0096C7"/>
<path d="M36 47L34 48L32 47V43H36V47Z" fill="#EDB88E"/>
<path d="M33.526 44.947C34.4818 44.8207 35.3602 44.3542 36 43.633V43H32V47L34 48L36 47V46.867C35.48 46.7291 34.993 46.4881 34.568 46.1582C34.143 45.8284 33.7887 45.4165 33.526 44.947V44.947Z" fill="#DA9367"/>
<path d="M34 44C35.0609 44 36.0783 43.5786 36.8284 42.8284C37.5786 42.0783 38 41.0609 38 40V36C37.366 36 36.7381 35.8752 36.1524 35.6325C35.5666 35.3899 35.0343 35.0343 34.586 34.586L34 34L33.414 34.586C32.9657 35.0343 32.4334 35.3899 31.8476 35.6325C31.2619 35.8752 30.634 36 30 36V36V40C30 41.0609 30.4214 42.0783 31.1716 42.8284C31.9217 43.5786 32.9391 44 34 44Z" fill="#F9DBAF"/>
<path d="M34.586 34.586L34 34L33.414 34.586C32.9657 35.0343 32.4334 35.3899 31.8476 35.6325C31.2618 35.8752 30.634 36 30 36V40C29.9976 40.7785 30.2231 41.5408 30.6488 42.1926C31.0745 42.8445 31.6816 43.3575 32.3954 43.6684C33.1092 43.9793 33.8984 44.0745 34.6656 43.9422C35.4328 43.81 36.1445 43.456 36.713 42.924C36.4782 42.9717 36.2395 42.9972 36 43C34.9391 43 33.9217 42.5786 33.1716 41.8284C32.4214 41.0783 32 40.0609 32 39V37.551C32.5252 37.3164 33.0041 36.9896 33.414 36.586L34 36L34.586 36.586C35.0343 37.0343 35.5666 37.3899 36.1524 37.6325C36.7381 37.8752 37.366 38 38 38V36C37.366 36 36.7381 35.8752 36.1524 35.6325C35.5666 35.3899 35.0343 35.0343 34.586 34.586V34.586Z" fill="#EDB88E"/>
<path d="M38 51V54H36C35.2044 54 34.4413 54.3161 33.8787 54.8787C33.3161 55.4413 33 56.2044 33 57H42V51H38Z" fill="#F9DBAF"/>
<path d="M38 51V52H40C40 52.7956 39.6839 53.5587 39.1213 54.1213C38.5587 54.6839 37.7956 55 37 55H35.854C35.2969 55 34.7509 55.1551 34.277 55.448C33.8032 55.7408 33.4202 56.1598 33.171 56.658L33 57H42V51H38Z" fill="#EDB88E"/>
<path d="M22 57H44C44.7956 57 45.5587 57.3161 46.1213 57.8787C46.6839 58.4413 47 59.2044 47 60V61H19V60C19 59.2044 19.3161 58.4413 19.8787 57.8787C20.4413 57.3161 21.2044 57 22 57Z" fill="#E9F1F2"/>
<path d="M22 48H30C30.5304 48 31.0391 48.2107 31.4142 48.5858C31.7893 48.9609 32 49.4696 32 50V57H22C21.4696 57 20.9609 56.7893 20.5858 56.4142C20.2107 56.0391 20 55.5304 20 55V50C20 49.4696 20.2107 48.9609 20.5858 48.5858C20.9609 48.2107 21.4696 48 22 48V48Z" fill="#E9F1F2"/>
<path d="M29 54C27.4087 54 25.8826 53.3679 24.7574 52.2426C23.6321 51.1174 23 49.5913 23 48H22C21.4696 48 20.9609 48.2107 20.5858 48.5858C20.2107 48.9609 20 49.4696 20 50V55C20 55.5304 20.2107 56.0391 20.5858 56.4142C20.9609 56.7893 21.4696 57 22 57H32V54H29Z" fill="#D0D8DA"/>
<path d="M24 59C23.4696 59 22.9609 58.7893 22.5858 58.4142C22.2107 58.0391 22 57.5304 22 57C21.2044 57 20.4413 57.3161 19.8787 57.8787C19.3161 58.4413 19 59.2044 19 60V61H47V60C46.9968 59.6586 46.9345 59.3202 46.816 59H24Z" fill="#D0D8DA"/>
<path d="M61.707 52.293L53.707 44.293C53.5671 44.1532 53.389 44.058 53.195 44.0194C53.0011 43.9808 52.8 44.0007 52.6173 44.0763C52.4346 44.152 52.2785 44.2801 52.1686 44.4445C52.0587 44.609 52 44.8022 52 45V48H46C45.7348 48 45.4804 48.1054 45.2929 48.2929C45.1053 48.4804 45 48.7348 45 49C45 49.2652 45.1053 49.5196 45.2929 49.7071C45.4804 49.8946 45.7348 50 46 50H53C53.2652 50 53.5196 49.8946 53.7071 49.7071C53.8946 49.5196 54 49.2652 54 49V47.414L59.586 53L54 58.586V57C54 56.7348 53.8946 56.4804 53.7071 56.2929C53.5196 56.1054 53.2652 56 53 56H43V48C42.9963 46.9145 42.6358 45.8604 41.974 45H43C46.4466 44.996 49.7509 43.6251 52.188 41.188C54.6251 38.7509 55.996 35.4466 56 32V25C56 24.7348 55.8946 24.4804 55.7071 24.2929C55.5196 24.1054 55.2652 24 55 24C54.7348 24 54.4804 24.1054 54.2929 24.2929C54.1053 24.4804 54 24.7348 54 25V32C53.9966 34.9163 52.8365 37.7122 50.7744 39.7744C48.7122 41.8365 45.9163 42.9966 43 43H41.974C42.6358 42.1396 42.9963 41.0855 43 40V38C42.999 37.6658 42.9793 37.332 42.941 37H44C45.0609 37 46.0783 36.5786 46.8284 35.8284C47.5786 35.0783 48 34.0609 48 33V11C48 10.7348 47.8946 10.4804 47.7071 10.2929C47.5196 10.1054 47.2652 10 47 10H44.63L51 4.338L57.37 10H55C54.7348 10 54.4804 10.1054 54.2929 10.2929C54.1053 10.4804 54 10.7348 54 11V21C54 21.2652 54.1053 21.5196 54.2929 21.7071C54.4804 21.8946 54.7348 22 55 22C55.2652 22 55.5196 21.8946 55.7071 21.7071C55.8946 21.5196 56 21.2652 56 21V12H60C60.2027 11.9998 60.4005 11.9381 60.5673 11.823C60.7341 11.7078 60.8619 11.5447 60.9339 11.3553C61.0059 11.1658 61.0187 10.959 60.9705 10.7621C60.9223 10.5653 60.8154 10.3877 60.664 10.253L51.664 2.253C51.481 2.09049 51.2447 2.00073 51 2.00073C50.7552 2.00073 50.519 2.09049 50.336 2.253L41.336 10.253C41.1846 10.3877 41.0777 10.5653 41.0295 10.7621C40.9813 10.959 40.9941 11.1658 41.0661 11.3553C41.1381 11.5447 41.2659 11.7078 41.4327 11.823C41.5995 11.9381 41.7973 11.9998 42 12H46V33C46 33.5304 45.7893 34.0391 45.4142 34.4142C45.0391 34.7893 44.5304 35 44 35H42.475C41.8271 33.1732 40.6088 31.6032 39 30.522V19H43C43.2027 18.9998 43.4005 18.9381 43.5673 18.823C43.7341 18.7078 43.8619 18.5447 43.9339 18.3553C44.0059 18.1658 44.0187 17.959 43.9705 17.7621C43.9223 17.5653 43.8154 17.3877 43.664 17.253L34.664 9.253C34.481 9.09049 34.2447 9.00073 34 9.00073C33.7552 9.00073 33.519 9.09049 33.336 9.253L24.336 17.253C24.1846 17.3877 24.0777 17.5653 24.0295 17.7621C23.9813 17.959 23.9941 18.1658 24.0661 18.3553C24.1381 18.5447 24.2659 18.7078 24.4327 18.823C24.5995 18.9381 24.7973 18.9998 25 19H29V27.079C29 27.3442 29.1053 27.5986 29.2929 27.7861C29.4804 27.9736 29.7348 28.079 30 28.079C30.2652 28.079 30.5196 27.9736 30.7071 27.7861C30.8946 27.5986 31 27.3442 31 27.079V18C31 17.7348 30.8946 17.4804 30.7071 17.2929C30.5196 17.1054 30.2652 17 30 17H27.63L34 11.338L40.37 17H38C37.7348 17 37.4804 17.1054 37.2929 17.2929C37.1053 17.4804 37 17.7348 37 18V29.525C35.8922 29.1279 34.717 28.9531 33.5416 29.0105C32.3662 29.0679 31.2137 29.3565 30.1499 29.8597C29.0861 30.3629 28.1319 31.0709 27.342 31.9431C26.552 32.8153 25.9417 33.8347 25.546 34.943C25.1071 34.8407 24.7156 34.5931 24.435 34.2405C24.1543 33.8878 24.0011 33.4507 24 33V27C23.9981 25.394 23.5673 23.8177 22.752 22.434C22.6869 22.318 22.5994 22.2161 22.4945 22.1343C22.3895 22.0525 22.2694 21.9924 22.1409 21.9577C22.0125 21.9229 21.8785 21.9142 21.7466 21.9319C21.6148 21.9496 21.4878 21.9934 21.3731 22.0608C21.2584 22.1282 21.1583 22.2178 21.0786 22.3243C20.999 22.4309 20.9414 22.5523 20.9093 22.6814C20.8772 22.8105 20.8711 22.9447 20.8915 23.0762C20.9119 23.2076 20.9583 23.3337 21.028 23.447C21.6627 24.5236 21.9983 25.7502 22 27V33C22.0023 33.8987 22.3071 34.7704 22.8653 35.4746C23.4235 36.1789 24.2026 36.6746 25.077 36.882C25.028 37.2527 25.0023 37.6261 25 38V40C25.0029 41.0627 25.3476 42.0962 25.983 42.948C23.2552 42.6922 20.7207 41.4287 18.8747 39.4042C17.0287 37.3797 16.0037 34.7398 16 32V27C16 26.7348 15.8946 26.4804 15.7071 26.2929C15.5196 26.1054 15.2652 26 15 26H11C10.7348 26 10.4804 26.1054 10.2929 26.2929C10.1053 26.4804 9.99999 26.7348 9.99999 27V29.37L4.33799 23L9.99999 16.63V19C9.99999 19.2652 10.1053 19.5196 10.2929 19.7071C10.4804 19.8946 10.7348 20 11 20H15C16.25 20.0013 17.4768 20.3373 18.553 20.973C18.7817 21.1075 19.0545 21.1456 19.3114 21.0789C19.5682 21.0122 19.788 20.8462 19.9225 20.6175C20.057 20.3888 20.095 20.116 20.0284 19.8591C19.9617 19.6023 19.7957 19.3825 19.567 19.248C18.1829 18.4328 16.6063 18.002 15 18H12V14C12.0001 13.7971 11.9384 13.599 11.8232 13.432C11.708 13.265 11.5448 13.1369 11.3551 13.0649C11.1654 12.9928 10.9583 12.9802 10.7613 13.0286C10.5643 13.077 10.3866 13.1842 10.252 13.336L2.25199 22.336C2.08948 22.519 1.99973 22.7553 1.99973 23C1.99973 23.2447 2.08948 23.481 2.25199 23.664L10.252 32.664C10.3866 32.8158 10.5643 32.923 10.7613 32.9714C10.9583 33.0198 11.1654 33.0072 11.3551 32.9351C11.5448 32.8631 11.708 32.735 11.8232 32.568C11.9384 32.401 12.0001 32.2029 12 32V28H14V32C14.0052 35.2831 15.2517 38.4428 17.4894 40.8452C19.7271 43.2476 22.7905 44.715 26.065 44.953C25.5896 45.5517 25.2593 46.2523 25.1 47H22C21.5805 47.0013 21.1659 47.0911 20.7834 47.2634C20.4009 47.4357 20.059 47.6867 19.78 48H15V45C15 44.8022 14.9413 44.609 14.8314 44.4445C14.7215 44.2801 14.5653 44.152 14.3826 44.0763C14.1999 44.0007 13.9989 43.9808 13.805 44.0194C13.611 44.058 13.4328 44.1532 13.293 44.293L5.29299 52.293C5.10552 52.4805 5.00021 52.7348 5.00021 53C5.00021 53.2652 5.10552 53.5195 5.29299 53.707L13.293 61.707C13.4328 61.8468 13.611 61.942 13.805 61.9806C13.9989 62.0192 14.1999 61.9993 14.3826 61.9237C14.5653 61.848 14.7215 61.7199 14.8314 61.5555C14.9413 61.391 15 61.1978 15 61V58H18.556C18.1961 58.6053 18.0041 59.2957 18 60V61C18 61.2652 18.1053 61.5196 18.2929 61.7071C18.4804 61.8946 18.7348 62 19 62C19.2652 62 19.5196 61.8946 19.7071 61.7071C19.8946 61.5196 20 61.2652 20 61V60C20 59.4696 20.2107 58.9609 20.5858 58.5858C20.9609 58.2107 21.4696 58 22 58H44C44.5304 58 45.0391 58.2107 45.4142 58.5858C45.7893 58.9609 46 59.4696 46 60V61C46 61.2652 46.1053 61.5196 46.2929 61.7071C46.4804 61.8946 46.7348 62 47 62C47.2652 62 47.5196 61.8946 47.7071 61.7071C47.8946 61.5196 48 61.2652 48 61V60C47.9958 59.2957 47.8039 58.6053 47.444 58H52V61C51.9999 61.1978 52.0585 61.3911 52.1684 61.5556C52.2782 61.72 52.4343 61.8483 52.617 61.924C52.7383 61.9746 52.8685 62.0004 53 62C53.2652 61.9999 53.5195 61.8946 53.707 61.707L61.707 53.707C61.8945 53.5195 61.9998 53.2652 61.9998 53C61.9998 52.7348 61.8945 52.4805 61.707 52.293V52.293ZM41 48V50H38C37.7348 50 37.4804 50.1054 37.2929 50.2929C37.1053 50.4804 37 50.7348 37 51V53H36C35.4301 53.0018 34.8672 53.1261 34.3496 53.3646C33.832 53.603 33.3717 53.95 33 54.382V50C32.9991 49.4231 32.8306 48.8589 32.515 48.376L33.553 48.895C33.6918 48.9644 33.8448 49.0005 34 49.0005C34.1552 49.0005 34.3082 48.9644 34.447 48.895L36.447 47.895C36.6132 47.8119 36.753 47.6842 36.8507 47.5261C36.9484 47.368 37.0001 47.1858 37 47V45H38C38.7956 45 39.5587 45.3161 40.1213 45.8787C40.6839 46.4413 41 47.2044 41 48ZM33 44.9C33.6599 45.0347 34.3401 45.0347 35 44.9V46.383L34 46.883L33 46.383V44.9ZM37 40C37 40.7956 36.6839 41.5587 36.1213 42.1213C35.5587 42.6839 34.7956 43 34 43C33.2043 43 32.4413 42.6839 31.8787 42.1213C31.3161 41.5587 31 40.7956 31 40V36.915C32.1263 36.7227 33.1703 36.2007 34 35.415C34.8334 36.1953 35.8757 36.7165 37 36.915V40ZM34 31C35.8558 31.0024 37.6349 31.7406 38.9471 33.0529C40.2593 34.3651 40.9976 36.1442 41 38V40C41 40.7956 40.6839 41.5587 40.1213 42.1213C39.5587 42.6839 38.7956 43 38 43H37.974C38.6358 42.1396 38.9963 41.0855 39 40V36C39 35.7348 38.8946 35.4804 38.7071 35.2929C38.5196 35.1054 38.2652 35 38 35C36.9852 34.9974 36.0125 34.5946 35.293 33.879L34.707 33.293C34.5195 33.1055 34.2652 33.0002 34 33.0002C33.7348 33.0002 33.4805 33.1055 33.293 33.293L32.707 33.879C32.3524 34.2357 31.9306 34.5185 31.4659 34.7109C31.0012 34.9033 30.5029 35.0016 30 35C29.7348 35 29.4804 35.1054 29.2929 35.2929C29.1053 35.4804 29 35.7348 29 36V40C29.0037 41.0855 29.3642 42.1396 30.026 43H30C29.2043 43 28.4413 42.6839 27.8787 42.1213C27.3161 41.5587 27 40.7956 27 40V38C27.0021 36.1441 27.7403 34.3649 29.0526 33.0526C30.3649 31.7403 32.1441 31.0021 34 31V31ZM30 45H31V47C31.0025 47.0651 31.0115 47.1297 31.027 47.193C30.6989 47.0681 30.3511 47.0027 30 47H27.184C27.3901 46.4171 27.7712 45.9121 28.2753 45.5541C28.7794 45.1961 29.3817 45.0026 30 45V45ZM14 56C13.7348 56 13.4804 56.1054 13.2929 56.2929C13.1053 56.4804 13 56.7348 13 57V58.586L7.41399 53L13 47.414V49C13 49.2652 13.1053 49.5196 13.2929 49.7071C13.4804 49.8946 13.7348 50 14 50H19V55C19.0033 55.3414 19.0656 55.6797 19.184 56H14ZM22 56C21.7348 56 21.4804 55.8946 21.2929 55.7071C21.1053 55.5196 21 55.2652 21 55V50C21 49.7348 21.1053 49.4804 21.2929 49.2929C21.4804 49.1054 21.7348 49 22 49H30C30.2652 49 30.5196 49.1054 30.7071 49.2929C30.8946 49.4804 31 49.7348 31 50V56H22ZM36 55H38C38.2652 55 38.5196 54.8946 38.7071 54.7071C38.8946 54.5196 39 54.2652 39 54V52H41V56H34.269C34.4444 55.6961 34.6967 55.4437 35.0006 55.2682C35.3044 55.0927 35.6491 55.0002 36 55V55Z" fill="#323232"/>
<path d="M26 54C26.5523 54 27 53.5523 27 53C27 52.4477 26.5523 52 26 52C25.4477 52 25 52.4477 25 53C25 53.5523 25.4477 54 26 54Z" fill="#323232"/>
</svg>
